{"title":"Alex Gaudino - Chinatown (h264/mp4)","uid":7216152,"size":65744630,"categoryP":"video","categoryS":"music_videos","magnet":"?xt=urn:btih:0d801f2248bb3a3957f41a1b126dd1a0fb996d87&amp;dn=Alex+Gaudino+-+Chinatown+%28h264%2Fmp4%29&amp;tr=udp%3A%2F%2Ftracker.openbittorrent.com%3A80&amp;tr=udp%3A%2F%2Fopen.demonii.com%3A1337&amp;tr=udp%3A%2F%2Ftracker.coppersurfer.tk%3A6969&amp;tr=udp%3A%2F%2Fexodus.desync.com%3A6969","seeders":1,"leechers":0,"uploader":"MusicVideos-HQ","files":1,"time":1335384071,"description":"General\n\nFormat                           : MPEG-4\nFormat profile                   : Base Media\nCodec ID                         : isom\nFile size                        : 62.7 MiB\nDuration                         : 2mn 51s\nOverall bit rate                 : 3 076 Kbps\nEncoded date                     : UTC 2012-04-25 06:24:03\nTagged date                      : UTC 2012-04-25 06:24:03\n\nVideo\nID                               : 1\nFormat                           : AVC\nFormat/Info                      : Advanced Video Codec\nFormat profile                   : &lt;a class=&quot;__cf_email__&quot; href=&quot;/cdn-cgi/l/email-protection&quot; data-cfemail=&quot;5a12333d321a1669746a&quot;&gt;[email&amp;#160;protected]&lt;/a&gt;&lt;script cf-hash='f9e31' type=&quot;text/javascript&quot;&gt;\n/* &lt;![CDATA[ */!function(){try{var t=&quot;currentScript&quot;in document?document.currentScript:function(){for(var t=document.getElementsByTagName(&quot;script&quot;),e=t.length;e--;)if(t[e].getAttribute(&quot;cf-hash&quot;))return t[e]}();if(t&amp;&amp;t.previousSibling){var e,r,n,i,c=t.previousSibling,a=c.getAttribute(&quot;data-cfemail&quot;);if(a){for(e=&quot;&quot;,r=parseInt(a.substr(0,2),16),n=2;a.length-n;n+=2)i=parseInt(a.substr(n,2),16)^r,e+=String.fromCharCode(i);e=document.createTextNode(e),c.parentNode.replaceChild(e,c)}}}catch(u){}}();/* ]]&gt; */&lt;/script&gt;\nFormat settings, CABAC           : Yes\nFormat settings, ReFrames        : 2 frames\nCodec ID                         : avc1\nCodec ID/Info                    : Advanced Video Coding\nDuration                         : 2mn 51s\nBit rate mode                    : Variable\nBit rate                         : 2 900 Kbps\nMaximum bit rate                 : 11.9 Mbps\nWidth                            : 720 pixels\nHeight                           : 480 pixels\nDisplay aspect ratio             : 16:9\nOriginal display aspect ratio    : 16:9\nFrame rate mode                  : Constant\nFrame rate                       : 25.000 fps\nStandard                         : NTSC\nColor space                      : YUV\nChroma subsampling               : 4:2:0\nBit depth                        : 8 bits\nScan type                        : Progressive\nBits/(Pixel*Frame)               : 0.336\nStream size                      : 61.0 MiB (97%)\n\n\nAudio\nID                               : 2\nFormat                           : AAC\nFormat/Info                      : Advanced Audio Codec\nFormat profile                   : LC\nCodec ID                         : 40\nDuration                         : 2mn 50s\nBit rate mode                    : Variable\nBit rate                         : 76.1 Kbps\nMaximum bit rate                 : 86.0 Kbps\nChannel(s)                       : 2 channels\nChannel positions                : Front: L R\nSampling rate                    : 44.1 KHz\nCompression mode                 : Lossy\nStream size                      : 1.55 MiB (2%)","torrent":{"xt":"urn:btih:0d801f2248bb3a3957f41a1b126dd1a0fb996d87","amp;dn":"Alex+Gaudino+-+Chinatown+%28h264%2Fmp4%29","amp;tr":["udp%3A%2F%2Ftracker.openbittorrent.com%3A80","udp%3A%2F%2Fopen.demonii.com%3A1337","udp%3A%2F%2Ftracker.coppersurfer.tk%3A6969","udp%3A%2F%2Fexodus.desync.com%3A6969"],"infoHash":"0d801f2248bb3a3957f41a1b126dd1a0fb996d87","infoHashBuffer":{"type":"Buffer","data":[13,128,31,34,72,187,58,57,87,244,26,27,18,109,209,160,251,153,109,135]},"announce":[],"urlList":[]}}